{
	"asset":{
		"generator":"Khronos glTF Blender I/O v5.0.21",
		"version":"2.0"
	},
	"scene":0,
	"scenes":[
		{
			"name":"Scene",
			"nodes":[
				0,
				1,
				2
			]
		}
	],
	"nodes":[
		{
			"mesh":0,
			"name":"Curve",
			"rotation":[
				0.7071068286895752,
				0,
				0,
				0.7071068286895752
			],
			"scale":[
				165.39866638183594,
				165.39866638183594,
				165.39866638183594
			],
			"translation":[
				-29.733470916748047,
				-17.591049194335938,
				0
			]
		},
		{
			"mesh":1,
			"name":"Curve.003",
			"rotation":[
				0.7071068286895752,
				0,
				0,
				0.7071068286895752
			],
			"scale":[
				165.39866638183594,
				165.39866638183594,
				165.39866638183594
			],
			"translation":[
				-12.831501007080078,
				-18.00340461730957,
				0.00032263051252812147
			]
		},
		{
			"mesh":2,
			"name":"Curve.012",
			"rotation":[
				0.7071068286895752,
				0,
				0,
				0.7071068286895752
			],
			"scale":[
				165.39866638183594,
				165.39866638183594,
				165.39866638183594
			],
			"translation":[
				-10.231216430664062,
				-3.058502197265625,
				0
			]
		}
	],
	"materials":[
		{
			"doubleSided":true,
			"name":"Frosted Glass (glass)"
		}
	],
	"meshes":[
		{
			"name":"Curve",
			"primitives":[
				{
					"attributes":{
						"POSITION":0,
						"NORMAL":1,
						"TEXCOORD_0":2
					},
					"indices":3,
					"material":0
				}
			]
		},
		{
			"name":"Curve.003",
			"primitives":[
				{
					"attributes":{
						"POSITION":4,
						"NORMAL":5,
						"TEXCOORD_0":6
					},
					"indices":7,
					"material":0
				}
			]
		},
		{
			"name":"Curve.012",
			"primitives":[
				{
					"attributes":{
						"POSITION":8,
						"NORMAL":9,
						"TEXCOORD_0":10,
						"TEXCOORD_1":11
					},
					"indices":12,
					"material":0
				}
			]
		}
	],
	"accessors":[
		{
			"bufferView":0,
			"componentType":5126,
			"count":434,
			"max":[
				0.15713495016098022,
				0.005268017295747995,
				0
			],
			"min":[
				-0.01411139965057373,
				0,
				-0.2150123119354248
			],
			"type":"VEC3"
		},
		{
			"bufferView":1,
			"componentType":5126,
			"count":434,
			"type":"VEC3"
		},
		{
			"bufferView":2,
			"componentType":5126,
			"count":434,
			"type":"VEC2"
		},
		{
			"bufferView":3,
			"componentType":5123,
			"count":900,
			"type":"SCALAR"
		},
		{
			"bufferView":4,
			"componentType":5126,
			"count":240,
			"max":[
				0.2628953754901886,
				0.004364815540611744,
				-0.0001410841941833496
			],
			"min":[
				0,
				0,
				-0.11822855472564697
			],
			"type":"VEC3"
		},
		{
			"bufferView":5,
			"componentType":5126,
			"count":240,
			"type":"VEC3"
		},
		{
			"bufferView":6,
			"componentType":5126,
			"count":240,
			"type":"VEC2"
		},
		{
			"bufferView":7,
			"componentType":5123,
			"count":468,
			"type":"SCALAR"
		},
		{
			"bufferView":8,
			"componentType":5126,
			"count":428,
			"max":[
				0.241728276014328,
				0.004457253497093916,
				-0.00019385448831599206
			],
			"min":[
				0,
				0,
				-0.12669360637664795
			],
			"type":"VEC3"
		},
		{
			"bufferView":9,
			"componentType":5126,
			"count":428,
			"type":"VEC3"
		},
		{
			"bufferView":10,
			"componentType":5126,
			"count":428,
			"type":"VEC2"
		},
		{
			"bufferView":11,
			"componentType":5126,
			"count":428,
			"type":"VEC2"
		},
		{
			"bufferView":12,
			"componentType":5123,
			"count":888,
			"type":"SCALAR"
		}
	],
	"bufferViews":[
		{
			"buffer":0,
			"byteLength":5208,
			"byteOffset":0,
			"target":34962
		},
		{
			"buffer":0,
			"byteLength":5208,
			"byteOffset":5208,
			"target":34962
		},
		{
			"buffer":0,
			"byteLength":3472,
			"byteOffset":10416,
			"target":34962
		},
		{
			"buffer":0,
			"byteLength":1800,
			"byteOffset":13888,
			"target":34963
		},
		{
			"buffer":0,
			"byteLength":2880,
			"byteOffset":15688,
			"target":34962
		},
		{
			"buffer":0,
			"byteLength":2880,
			"byteOffset":18568,
			"target":34962
		},
		{
			"buffer":0,
			"byteLength":1920,
			"byteOffset":21448,
			"target":34962
		},
		{
			"buffer":0,
			"byteLength":936,
			"byteOffset":23368,
			"target":34963
		},
		{
			"buffer":0,
			"byteLength":5136,
			"byteOffset":24304,
			"target":34962
		},
		{
			"buffer":0,
			"byteLength":5136,
			"byteOffset":29440,
			"target":34962
		},
		{
			"buffer":0,
			"byteLength":3424,
			"byteOffset":34576,
			"target":34962
		},
		{
			"buffer":0,
			"byteLength":3424,
			"byteOffset":38000,
			"target":34962
		},
		{
			"buffer":0,
			"byteLength":1776,
			"byteOffset":41424,
			"target":34963
		}
	],
	"buffers":[
		{
			"byteLength":43200,
			"uri":"GLASES222.bin"
		}
	]
}
