<svg width="417" height="256" viewBox="0 0 417 256" fill="none" xmlns="http://www.w3.org/2000/svg">
<g filter="url(#filter0_i_2550_4476)">
<path d="M2.22344 20.4L6.18344 6L7.50344 11.46C5.78344 11.46 4.36344 10.96 3.24344 9.96C2.16344 8.92 1.62344 7.52 1.62344 5.76C1.62344 4.04 2.18344 2.66 3.30344 1.62C4.42344 0.539997 5.80344 -3.57628e-06 7.44344 -3.57628e-06C9.12344 -3.57628e-06 10.5034 0.539997 11.5834 1.62C12.6634 2.66 13.2034 4.04 13.2034 5.76C13.2034 6.28 13.1634 6.8 13.0834 7.32C13.0434 7.8 12.9034 8.38 12.6634 9.06C12.4634 9.74 12.1234 10.64 11.6434 11.76L8.16344 20.4H2.22344ZM16.3834 20.4L20.3434 6L21.6634 11.46C19.9434 11.46 18.5234 10.96 17.4034 9.96C16.3234 8.92 15.7834 7.52 15.7834 5.76C15.7834 4.04 16.3434 2.66 17.4634 1.62C18.5834 0.539997 19.9634 -3.57628e-06 21.6034 -3.57628e-06C23.2834 -3.57628e-06 24.6634 0.539997 25.7434 1.62C26.8234 2.66 27.3634 4.04 27.3634 5.76C27.3634 6.28 27.3234 6.8 27.2434 7.32C27.2034 7.8 27.0634 8.38 26.8234 9.06C26.6234 9.74 26.2834 10.64 25.8034 11.76L22.3234 20.4H16.3834ZM51.3784 45V3H61.0984V37.08H82.1584V45H51.3784ZM106.964 45V38.7L106.364 37.32V26.04C106.364 24.04 105.744 22.48 104.504 21.36C103.304 20.24 101.444 19.68 98.9238 19.68C97.2038 19.68 95.5038 19.96 93.8238 20.52C92.1838 21.04 90.7838 21.76 89.6238 22.68L86.2638 16.14C88.0238 14.9 90.1438 13.94 92.6238 13.26C95.1038 12.58 97.6238 12.24 100.184 12.24C105.104 12.24 108.924 13.4 111.644 15.72C114.364 18.04 115.724 21.66 115.724 26.58V45H106.964ZM97.1238 45.48C94.6038 45.48 92.4438 45.06 90.6438 44.22C88.8438 43.34 87.4638 42.16 86.5038 40.68C85.5438 39.2 85.0638 37.54 85.0638 35.7C85.0638 33.78 85.5238 32.1 86.4438 30.66C87.4038 29.22 88.9038 28.1 90.9438 27.3C92.9838 26.46 95.6438 26.04 98.9238 26.04H107.504V31.5H99.9438C97.7438 31.5 96.2238 31.86 95.3838 32.58C94.5838 33.3 94.1838 34.2 94.1838 35.28C94.1838 36.48 94.6438 37.44 95.5638 38.16C96.5238 38.84 97.8238 39.18 99.4638 39.18C101.024 39.18 102.424 38.82 103.664 38.1C104.904 37.34 105.804 36.24 106.364 34.8L107.804 39.12C107.124 41.2 105.884 42.78 104.084 43.86C102.284 44.94 99.9638 45.48 97.1238 45.48ZM135.055 45.48C132.295 45.48 129.635 45.16 127.075 44.52C124.555 43.84 122.555 43 121.075 42L124.195 35.28C125.675 36.2 127.415 36.96 129.415 37.56C131.455 38.12 133.455 38.4 135.415 38.4C137.575 38.4 139.095 38.14 139.975 37.62C140.895 37.1 141.355 36.38 141.355 35.46C141.355 34.7 140.995 34.14 140.275 33.78C139.595 33.38 138.675 33.08 137.515 32.88C136.355 32.68 135.075 32.48 133.675 32.28C132.315 32.08 130.935 31.82 129.535 31.5C128.135 31.14 126.855 30.62 125.695 29.94C124.535 29.26 123.595 28.34 122.875 27.18C122.195 26.02 121.855 24.52 121.855 22.68C121.855 20.64 122.435 18.84 123.595 17.28C124.795 15.72 126.515 14.5 128.755 13.62C130.995 12.7 133.675 12.24 136.795 12.24C138.995 12.24 141.235 12.48 143.515 12.96C145.795 13.44 147.695 14.14 149.215 15.06L146.095 21.72C144.535 20.8 142.955 20.18 141.355 19.86C139.795 19.5 138.275 19.32 136.795 19.32C134.715 19.32 133.195 19.6 132.235 20.16C131.275 20.72 130.795 21.44 130.795 22.32C130.795 23.12 131.135 23.72 131.815 24.12C132.535 24.52 133.475 24.84 134.635 25.08C135.795 25.32 137.055 25.54 138.415 25.74C139.815 25.9 141.215 26.16 142.615 26.52C144.015 26.88 145.275 27.4 146.395 28.08C147.555 28.72 148.495 29.62 149.215 30.78C149.935 31.9 150.295 33.38 150.295 35.22C150.295 37.22 149.695 39 148.495 40.56C147.295 42.08 145.555 43.28 143.275 44.16C141.035 45.04 138.295 45.48 135.055 45.48ZM189.082 45.48C185.402 45.48 182.162 44.76 179.362 43.32C176.602 41.88 174.462 39.92 172.942 37.44C171.422 34.92 170.662 32.06 170.662 28.86C170.662 25.62 171.402 22.76 172.882 20.28C174.402 17.76 176.462 15.8 179.062 14.4C181.662 12.96 184.602 12.24 187.882 12.24C191.042 12.24 193.882 12.92 196.402 14.28C198.962 15.6 200.982 17.52 202.462 20.04C203.942 22.52 204.682 25.5 204.682 28.98C204.682 29.34 204.662 29.76 204.622 30.24C204.582 30.68 204.542 31.1 204.502 31.5H178.282V26.04H199.582L195.982 27.66C195.982 25.98 195.642 24.52 194.962 23.28C194.282 22.04 193.342 21.08 192.142 20.4C190.942 19.68 189.542 19.32 187.942 19.32C186.342 19.32 184.922 19.68 183.682 20.4C182.482 21.08 181.542 22.06 180.862 23.34C180.182 24.58 179.842 26.06 179.842 27.78V29.22C179.842 30.98 180.222 32.54 180.982 33.9C181.782 35.22 182.882 36.24 184.282 36.96C185.722 37.64 187.402 37.98 189.322 37.98C191.042 37.98 192.542 37.72 193.822 37.2C195.142 36.68 196.342 35.9 197.422 34.86L202.402 40.26C200.922 41.94 199.062 43.24 196.822 44.16C194.582 45.04 192.002 45.48 189.082 45.48ZM205.955 45L220.415 26.04L220.235 31.2L206.375 12.72H216.875L225.635 24.78L221.675 24.9L230.735 12.72H240.695L226.775 31.02V25.98L241.175 45H230.555L221.375 32.16L225.275 32.7L216.155 45H205.955ZM260.322 45.48C256.842 45.48 253.742 44.78 251.022 43.38C248.302 41.94 246.162 39.96 244.602 37.44C243.082 34.92 242.322 32.06 242.322 28.86C242.322 25.62 243.082 22.76 244.602 20.28C246.162 17.76 248.302 15.8 251.022 14.4C253.742 12.96 256.842 12.24 260.322 12.24C263.722 12.24 266.682 12.96 269.202 14.4C271.722 15.8 273.582 17.82 274.782 20.46L267.522 24.36C266.682 22.84 265.622 21.72 264.342 21C263.102 20.28 261.742 19.92 260.262 19.92C258.662 19.92 257.222 20.28 255.942 21C254.662 21.72 253.642 22.74 252.882 24.06C252.162 25.38 251.802 26.98 251.802 28.86C251.802 30.74 252.162 32.34 252.882 33.66C253.642 34.98 254.662 36 255.942 36.72C257.222 37.44 258.662 37.8 260.262 37.8C261.742 37.8 263.102 37.46 264.342 36.78C265.622 36.06 266.682 34.92 267.522 33.36L274.782 37.32C273.582 39.92 271.722 41.94 269.202 43.38C266.682 44.78 263.722 45.48 260.322 45.48ZM293.792 45.48C291.112 45.48 288.712 44.96 286.592 43.92C284.512 42.88 282.892 41.3 281.732 39.18C280.572 37.02 279.992 34.28 279.992 30.96V12.72H289.352V29.58C289.352 32.26 289.912 34.24 291.032 35.52C292.192 36.76 293.812 37.38 295.892 37.38C297.332 37.38 298.612 37.08 299.732 36.48C300.852 35.84 301.732 34.88 302.372 33.6C303.012 32.28 303.332 30.64 303.332 28.68V12.72H312.692V45H303.812V36.12L305.432 38.7C304.352 40.94 302.752 42.64 300.632 43.8C298.552 44.92 296.272 45.48 293.792 45.48ZM332.223 45.48C329.463 45.48 326.803 45.16 324.243 44.52C321.723 43.84 319.723 43 318.243 42L321.363 35.28C322.843 36.2 324.583 36.96 326.583 37.56C328.623 38.12 330.623 38.4 332.583 38.4C334.743 38.4 336.263 38.14 337.143 37.62C338.063 37.1 338.523 36.38 338.523 35.46C338.523 34.7 338.163 34.14 337.443 33.78C336.763 33.38 335.843 33.08 334.683 32.88C333.523 32.68 332.243 32.48 330.843 32.28C329.483 32.08 328.103 31.82 326.703 31.5C325.303 31.14 324.023 30.62 322.863 29.94C321.703 29.26 320.763 28.34 320.043 27.18C319.363 26.02 319.023 24.52 319.023 22.68C319.023 20.64 319.603 18.84 320.763 17.28C321.963 15.72 323.683 14.5 325.923 13.62C328.163 12.7 330.843 12.24 333.963 12.24C336.163 12.24 338.403 12.48 340.683 12.96C342.963 13.44 344.863 14.14 346.383 15.06L343.263 21.72C341.703 20.8 340.123 20.18 338.523 19.86C336.963 19.5 335.443 19.32 333.963 19.32C331.883 19.32 330.363 19.6 329.403 20.16C328.443 20.72 327.963 21.44 327.963 22.32C327.963 23.12 328.303 23.72 328.983 24.12C329.703 24.52 330.643 24.84 331.803 25.08C332.963 25.32 334.223 25.54 335.583 25.74C336.983 25.9 338.383 26.16 339.783 26.52C341.183 26.88 342.443 27.4 343.563 28.08C344.723 28.72 345.663 29.62 346.383 30.78C347.103 31.9 347.463 33.38 347.463 35.22C347.463 37.22 346.863 39 345.663 40.56C344.463 42.08 342.723 43.28 340.443 44.16C338.203 45.04 335.463 45.48 332.223 45.48ZM373.038 45V38.7L372.438 37.32V26.04C372.438 24.04 371.818 22.48 370.578 21.36C369.378 20.24 367.518 19.68 364.998 19.68C363.278 19.68 361.578 19.96 359.898 20.52C358.258 21.04 356.858 21.76 355.698 22.68L352.338 16.14C354.098 14.9 356.218 13.94 358.698 13.26C361.178 12.58 363.698 12.24 366.258 12.24C371.178 12.24 374.998 13.4 377.718 15.72C380.438 18.04 381.798 21.66 381.798 26.58V45H373.038ZM363.198 45.48C360.678 45.48 358.518 45.06 356.718 44.22C354.918 43.34 353.538 42.16 352.578 40.68C351.618 39.2 351.138 37.54 351.138 35.7C351.138 33.78 351.598 32.1 352.518 30.66C353.478 29.22 354.978 28.1 357.018 27.3C359.058 26.46 361.718 26.04 364.998 26.04H373.578V31.5H366.018C363.818 31.5 362.298 31.86 361.458 32.58C360.658 33.3 360.258 34.2 360.258 35.28C360.258 36.48 360.718 37.44 361.638 38.16C362.598 38.84 363.898 39.18 365.538 39.18C367.098 39.18 368.498 38.82 369.738 38.1C370.978 37.34 371.878 36.24 372.438 34.8L373.878 39.12C373.198 41.2 371.958 42.78 370.158 43.86C368.358 44.94 366.038 45.48 363.198 45.48ZM401.129 45.48C398.369 45.48 395.709 45.16 393.149 44.52C390.629 43.84 388.629 43 387.149 42L390.269 35.28C391.749 36.2 393.489 36.96 395.489 37.56C397.529 38.12 399.529 38.4 401.489 38.4C403.649 38.4 405.169 38.14 406.049 37.62C406.969 37.1 407.429 36.38 407.429 35.46C407.429 34.7 407.069 34.14 406.349 33.78C405.669 33.38 404.749 33.08 403.589 32.88C402.429 32.68 401.149 32.48 399.749 32.28C398.389 32.08 397.009 31.82 395.609 31.5C394.209 31.14 392.929 30.62 391.769 29.94C390.609 29.26 389.669 28.34 388.949 27.18C388.269 26.02 387.929 24.52 387.929 22.68C387.929 20.64 388.509 18.84 389.669 17.28C390.869 15.72 392.589 14.5 394.829 13.62C397.069 12.7 399.749 12.24 402.869 12.24C405.069 12.24 407.309 12.48 409.589 12.96C411.869 13.44 413.769 14.14 415.289 15.06L412.169 21.72C410.609 20.8 409.029 20.18 407.429 19.86C405.869 19.5 404.349 19.32 402.869 19.32C400.789 19.32 399.269 19.6 398.309 20.16C397.349 20.72 396.869 21.44 396.869 22.32C396.869 23.12 397.209 23.72 397.889 24.12C398.609 24.52 399.549 24.84 400.709 25.08C401.869 25.32 403.129 25.54 404.489 25.74C405.889 25.9 407.289 26.16 408.689 26.52C410.089 26.88 411.349 27.4 412.469 28.08C413.629 28.72 414.569 29.62 415.289 30.78C416.009 31.9 416.369 33.38 416.369 35.22C416.369 37.22 415.769 39 414.569 40.56C413.369 42.08 411.629 43.28 409.349 44.16C407.109 45.04 404.369 45.48 401.129 45.48ZM17.7034 115.48C14.6634 115.48 11.9234 114.8 9.48344 113.44C7.04344 112.04 5.10344 110.1 3.66344 107.62C2.26344 105.14 1.56344 102.22 1.56344 98.86C1.56344 95.46 2.26344 92.52 3.66344 90.04C5.10344 87.56 7.04344 85.64 9.48344 84.28C11.9234 82.92 14.6634 82.24 17.7034 82.24C20.4234 82.24 22.8034 82.84 24.8434 84.04C26.8834 85.24 28.4634 87.06 29.5834 89.5C30.7034 91.94 31.2634 95.06 31.2634 98.86C31.2634 102.62 30.7234 105.74 29.6434 108.22C28.5634 110.66 27.0034 112.48 24.9634 113.68C22.9634 114.88 20.5434 115.48 17.7034 115.48ZM19.3234 107.8C20.8434 107.8 22.2234 107.44 23.4634 106.72C24.7034 106 25.6834 104.98 26.4034 103.66C27.1634 102.3 27.5434 100.7 27.5434 98.86C27.5434 96.98 27.1634 95.38 26.4034 94.06C25.6834 92.74 24.7034 91.72 23.4634 91C22.2234 90.28 20.8434 89.92 19.3234 89.92C17.7634 89.92 16.3634 90.28 15.1234 91C13.8834 91.72 12.8834 92.74 12.1234 94.06C11.4034 95.38 11.0434 96.98 11.0434 98.86C11.0434 100.7 11.4034 102.3 12.1234 103.66C12.8834 104.98 13.8834 106 15.1234 106.72C16.3634 107.44 17.7634 107.8 19.3234 107.8ZM27.7834 115V108.4L27.9634 98.8L27.3634 89.26V70.48H36.7234V115H27.7834ZM61.4064 115.48C57.7264 115.48 54.4864 114.76 51.6864 113.32C48.9264 111.88 46.7864 109.92 45.2664 107.44C43.7464 104.92 42.9864 102.06 42.9864 98.86C42.9864 95.62 43.7264 92.76 45.2064 90.28C46.7264 87.76 48.7864 85.8 51.3864 84.4C53.9864 82.96 56.9264 82.24 60.2064 82.24C63.3664 82.24 66.2064 82.92 68.7264 84.28C71.2864 85.6 73.3064 87.52 74.7864 90.04C76.2664 92.52 77.0064 95.5 77.0064 98.98C77.0064 99.34 76.9864 99.76 76.9464 100.24C76.9064 100.68 76.8664 101.1 76.8264 101.5H50.6064V96.04H71.9064L68.3064 97.66C68.3064 95.98 67.9664 94.52 67.2864 93.28C66.6064 92.04 65.6664 91.08 64.4664 90.4C63.2664 89.68 61.8664 89.32 60.2664 89.32C58.6664 89.32 57.2464 89.68 56.0064 90.4C54.8064 91.08 53.8664 92.06 53.1864 93.34C52.5064 94.58 52.1664 96.06 52.1664 97.78V99.22C52.1664 100.98 52.5464 102.54 53.3064 103.9C54.1064 105.22 55.2064 106.24 56.6064 106.96C58.0464 107.64 59.7264 107.98 61.6464 107.98C63.3664 107.98 64.8664 107.72 66.1464 107.2C67.4664 106.68 68.6664 105.9 69.7464 104.86L74.7264 110.26C73.2464 111.94 71.3864 113.24 69.1464 114.16C66.9064 115.04 64.3264 115.48 61.4064 115.48ZM119.85 82.24C122.41 82.24 124.69 82.76 126.69 83.8C128.73 84.8 130.33 86.36 131.49 88.48C132.65 90.56 133.23 93.24 133.23 96.52V115H123.87V97.96C123.87 95.36 123.29 93.44 122.13 92.2C121.01 90.96 119.41 90.34 117.33 90.34C115.85 90.34 114.51 90.66 113.31 91.3C112.15 91.9 111.23 92.84 110.55 94.12C109.91 95.4 109.59 97.04 109.59 99.04V115H100.23V70.48H109.59V91.66L107.49 88.96C108.65 86.8 110.31 85.14 112.47 83.98C114.63 82.82 117.09 82.24 119.85 82.24ZM157.309 115.48C153.869 115.48 150.809 114.76 148.129 113.32C145.489 111.88 143.389 109.92 141.829 107.44C140.309 104.92 139.549 102.06 139.549 98.86C139.549 95.62 140.309 92.76 141.829 90.28C143.389 87.76 145.489 85.8 148.129 84.4C150.809 82.96 153.869 82.24 157.309 82.24C160.709 82.24 163.749 82.96 166.429 84.4C169.109 85.8 171.209 87.74 172.729 90.22C174.249 92.7 175.009 95.58 175.009 98.86C175.009 102.06 174.249 104.92 172.729 107.44C171.209 109.92 169.109 111.88 166.429 113.32C163.749 114.76 160.709 115.48 157.309 115.48ZM157.309 107.8C158.869 107.8 160.269 107.44 161.509 106.72C162.749 106 163.729 104.98 164.449 103.66C165.169 102.3 165.529 100.7 165.529 98.86C165.529 96.98 165.169 95.38 164.449 94.06C163.729 92.74 162.749 91.72 161.509 91C160.269 90.28 158.869 89.92 157.309 89.92C155.749 89.92 154.349 90.28 153.109 91C151.869 91.72 150.869 92.74 150.109 94.06C149.389 95.38 149.029 96.98 149.029 98.86C149.029 100.7 149.389 102.3 150.109 103.66C150.869 104.98 151.869 106 153.109 106.72C154.349 107.44 155.749 107.8 157.309 107.8ZM184.466 127.12C182.786 127.12 181.126 126.86 179.486 126.34C177.846 125.82 176.506 125.1 175.466 124.18L178.886 117.52C179.606 118.16 180.426 118.66 181.346 119.02C182.306 119.38 183.246 119.56 184.166 119.56C185.486 119.56 186.526 119.24 187.286 118.6C188.086 118 188.806 116.98 189.446 115.54L191.126 111.58L191.846 110.56L203.426 82.72H212.426L197.846 116.98C196.806 119.58 195.606 121.62 194.246 123.1C192.926 124.58 191.446 125.62 189.806 126.22C188.206 126.82 186.426 127.12 184.466 127.12ZM189.986 116.26L175.586 82.72H185.246L196.406 109.72L189.986 116.26ZM244.098 115.48C241.338 115.48 238.678 115.16 236.118 114.52C233.598 113.84 231.598 113 230.118 112L233.238 105.28C234.718 106.2 236.458 106.96 238.458 107.56C240.498 108.12 242.498 108.4 244.458 108.4C246.618 108.4 248.138 108.14 249.018 107.62C249.938 107.1 250.398 106.38 250.398 105.46C250.398 104.7 250.038 104.14 249.318 103.78C248.638 103.38 247.718 103.08 246.558 102.88C245.398 102.68 244.118 102.48 242.718 102.28C241.358 102.08 239.978 101.82 238.578 101.5C237.178 101.14 235.898 100.62 234.738 99.94C233.578 99.26 232.638 98.34 231.918 97.18C231.238 96.02 230.898 94.52 230.898 92.68C230.898 90.64 231.478 88.84 232.638 87.28C233.838 85.72 235.558 84.5 237.798 83.62C240.038 82.7 242.718 82.24 245.838 82.24C248.038 82.24 250.278 82.48 252.558 82.96C254.838 83.44 256.738 84.14 258.258 85.06L255.138 91.72C253.578 90.8 251.998 90.18 250.398 89.86C248.838 89.5 247.318 89.32 245.838 89.32C243.758 89.32 242.238 89.6 241.278 90.16C240.318 90.72 239.838 91.44 239.838 92.32C239.838 93.12 240.178 93.72 240.858 94.12C241.578 94.52 242.518 94.84 243.678 95.08C244.838 95.32 246.098 95.54 247.458 95.74C248.858 95.9 250.258 96.16 251.658 96.52C253.058 96.88 254.318 97.4 255.438 98.08C256.598 98.72 257.538 99.62 258.258 100.78C258.978 101.9 259.338 103.38 259.338 105.22C259.338 107.22 258.738 109 257.538 110.56C256.338 112.08 254.598 113.28 252.318 114.16C250.078 115.04 247.338 115.48 244.098 115.48ZM280.473 115.48C277.033 115.48 273.973 114.76 271.293 113.32C268.653 111.88 266.553 109.92 264.993 107.44C263.473 104.92 262.713 102.06 262.713 98.86C262.713 95.62 263.473 92.76 264.993 90.28C266.553 87.76 268.653 85.8 271.293 84.4C273.973 82.96 277.033 82.24 280.473 82.24C283.873 82.24 286.913 82.96 289.593 84.4C292.273 85.8 294.373 87.74 295.893 90.22C297.413 92.7 298.173 95.58 298.173 98.86C298.173 102.06 297.413 104.92 295.893 107.44C294.373 109.92 292.273 111.88 289.593 113.32C286.913 114.76 283.873 115.48 280.473 115.48ZM280.473 107.8C282.033 107.8 283.433 107.44 284.673 106.72C285.913 106 286.893 104.98 287.613 103.66C288.333 102.3 288.693 100.7 288.693 98.86C288.693 96.98 288.333 95.38 287.613 94.06C286.893 92.74 285.913 91.72 284.673 91C283.433 90.28 282.033 89.92 280.473 89.92C278.913 89.92 277.513 90.28 276.273 91C275.033 91.72 274.033 92.74 273.273 94.06C272.553 95.38 272.193 96.98 272.193 98.86C272.193 100.7 272.553 102.3 273.273 103.66C274.033 104.98 275.033 106 276.273 106.72C277.513 107.44 278.913 107.8 280.473 107.8ZM324.049 82.24C326.609 82.24 328.889 82.76 330.889 83.8C332.929 84.8 334.529 86.36 335.689 88.48C336.849 90.56 337.429 93.24 337.429 96.52V115H328.069V97.96C328.069 95.36 327.489 93.44 326.329 92.2C325.209 90.96 323.609 90.34 321.529 90.34C320.049 90.34 318.709 90.66 317.509 91.3C316.349 91.9 315.429 92.84 314.749 94.12C314.109 95.4 313.789 97.04 313.789 99.04V115H304.429V82.72H313.369V91.66L311.689 88.96C312.849 86.8 314.509 85.14 316.669 83.98C318.829 82.82 321.289 82.24 324.049 82.24ZM378.926 115.48C375.246 115.48 372.006 114.76 369.206 113.32C366.446 111.88 364.306 109.92 362.786 107.44C361.266 104.92 360.506 102.06 360.506 98.86C360.506 95.62 361.246 92.76 362.726 90.28C364.246 87.76 366.306 85.8 368.906 84.4C371.506 82.96 374.446 82.24 377.726 82.24C380.886 82.24 383.726 82.92 386.246 84.28C388.806 85.6 390.826 87.52 392.306 90.04C393.786 92.52 394.526 95.5 394.526 98.98C394.526 99.34 394.506 99.76 394.466 100.24C394.426 100.68 394.386 101.1 394.346 101.5H368.126V96.04H389.426L385.826 97.66C385.826 95.98 385.486 94.52 384.806 93.28C384.126 92.04 383.186 91.08 381.986 90.4C380.786 89.68 379.386 89.32 377.786 89.32C376.186 89.32 374.766 89.68 373.526 90.4C372.326 91.08 371.386 92.06 370.706 93.34C370.026 94.58 369.686 96.06 369.686 97.78V99.22C369.686 100.98 370.066 102.54 370.826 103.9C371.626 105.22 372.726 106.24 374.126 106.96C375.566 107.64 377.246 107.98 379.166 107.98C380.886 107.98 382.386 107.72 383.666 107.2C384.986 106.68 386.186 105.9 387.266 104.86L392.246 110.26C390.766 111.94 388.906 113.24 386.666 114.16C384.426 115.04 381.846 115.48 378.926 115.48ZM400.758 115V70.48H410.118V115H400.758ZM4.98344 185V152C4.98344 148.36 6.06344 145.46 8.22344 143.3C10.3834 141.1 13.4634 140 17.4634 140C18.8234 140 20.1234 140.14 21.3634 140.42C22.6434 140.7 23.7234 141.14 24.6034 141.74L22.1434 148.52C21.6234 148.16 21.0434 147.88 20.4034 147.68C19.7634 147.48 19.0834 147.38 18.3634 147.38C17.0034 147.38 15.9434 147.78 15.1834 148.58C14.4634 149.34 14.1034 150.5 14.1034 152.06V155.06L14.3434 159.08V185H4.98344ZM0.00343752 160.64V153.44H22.3834V160.64H0.00343752ZM40.6666 185.48C37.9866 185.48 35.5866 184.96 33.4666 183.92C31.3866 182.88 29.7666 181.3 28.6066 179.18C27.4466 177.02 26.8666 174.28 26.8666 170.96V152.72H36.2266V169.58C36.2266 172.26 36.7866 174.24 37.9066 175.52C39.0666 176.76 40.6866 177.38 42.7666 177.38C44.2066 177.38 45.4866 177.08 46.6066 176.48C47.7266 175.84 48.6066 174.88 49.2466 173.6C49.8866 172.28 50.2066 170.64 50.2066 168.68V152.72H59.5666V185H50.6866V176.12L52.3066 178.7C51.2266 180.94 49.6266 182.64 47.5066 183.8C45.4266 184.92 43.1466 185.48 40.6666 185.48ZM81.438 185.48C77.638 185.48 74.678 184.52 72.558 182.6C70.438 180.64 69.378 177.74 69.378 173.9V145.58H78.738V173.78C78.738 175.14 79.098 176.2 79.818 176.96C80.538 177.68 81.518 178.04 82.758 178.04C84.238 178.04 85.498 177.64 86.538 176.84L89.058 183.44C88.098 184.12 86.938 184.64 85.578 185C84.258 185.32 82.878 185.48 81.438 185.48ZM64.398 160.64V153.44H86.778V160.64H64.398ZM107.932 185.48C105.252 185.48 102.852 184.96 100.732 183.92C98.6522 182.88 97.0322 181.3 95.8722 179.18C94.7122 177.02 94.1322 174.28 94.1322 170.96V152.72H103.492V169.58C103.492 172.26 104.052 174.24 105.172 175.52C106.332 176.76 107.952 177.38 110.032 177.38C111.472 177.38 112.752 177.08 113.872 176.48C114.992 175.84 115.872 174.88 116.512 173.6C117.152 172.28 117.472 170.64 117.472 168.68V152.72H126.832V185H117.952V176.12L119.572 178.7C118.492 180.94 116.892 182.64 114.772 183.8C112.692 184.92 110.412 185.48 107.932 185.48ZM135.504 185V152.72H144.444V161.84L143.184 159.2C144.144 156.92 145.684 155.2 147.804 154.04C149.924 152.84 152.504 152.24 155.544 152.24V160.88C155.144 160.84 154.784 160.82 154.464 160.82C154.144 160.78 153.804 160.76 153.444 160.76C150.884 160.76 148.804 161.5 147.204 162.98C145.644 164.42 144.864 166.68 144.864 169.76V185H135.504ZM176.235 185.48C172.795 185.48 169.735 184.76 167.055 183.32C164.415 181.88 162.315 179.92 160.755 177.44C159.235 174.92 158.475 172.06 158.475 168.86C158.475 165.62 159.235 162.76 160.755 160.28C162.315 157.76 164.415 155.8 167.055 154.4C169.735 152.96 172.795 152.24 176.235 152.24C179.635 152.24 182.675 152.96 185.355 154.4C188.035 155.8 190.135 157.74 191.655 160.22C193.175 162.7 193.935 165.58 193.935 168.86C193.935 172.06 193.175 174.92 191.655 177.44C190.135 179.92 188.035 181.88 185.355 183.32C182.675 184.76 179.635 185.48 176.235 185.48ZM176.235 177.8C177.795 177.8 179.195 177.44 180.435 176.72C181.675 176 182.655 174.98 183.375 173.66C184.095 172.3 184.455 170.7 184.455 168.86C184.455 166.98 184.095 165.38 183.375 164.06C182.655 162.74 181.675 161.72 180.435 161C179.195 160.28 177.795 159.92 176.235 159.92C174.675 159.92 173.275 160.28 172.035 161C170.795 161.72 169.795 162.74 169.035 164.06C168.315 165.38 167.955 166.98 167.955 168.86C167.955 170.7 168.315 172.3 169.035 173.66C169.795 174.98 170.795 176 172.035 176.72C173.275 177.44 174.675 177.8 176.235 177.8ZM231.043 185.48C228.003 185.48 225.263 184.8 222.823 183.44C220.383 182.04 218.443 180.1 217.003 177.62C215.603 175.14 214.903 172.22 214.903 168.86C214.903 165.46 215.603 162.52 217.003 160.04C218.443 157.56 220.383 155.64 222.823 154.28C225.263 152.92 228.003 152.24 231.043 152.24C233.763 152.24 236.143 152.84 238.183 154.04C240.223 155.24 241.803 157.06 242.923 159.5C244.043 161.94 244.603 165.06 244.603 168.86C244.603 172.62 244.063 175.74 242.983 178.22C241.903 180.66 240.343 182.48 238.303 183.68C236.303 184.88 233.883 185.48 231.043 185.48ZM232.663 177.8C234.183 177.8 235.563 177.44 236.803 176.72C238.043 176 239.023 174.98 239.743 173.66C240.503 172.3 240.883 170.7 240.883 168.86C240.883 166.98 240.503 165.38 239.743 164.06C239.023 162.74 238.043 161.72 236.803 161C235.563 160.28 234.183 159.92 232.663 159.92C231.103 159.92 229.703 160.28 228.463 161C227.223 161.72 226.223 162.74 225.463 164.06C224.743 165.38 224.383 166.98 224.383 168.86C224.383 170.7 224.743 172.3 225.463 173.66C226.223 174.98 227.223 176 228.463 176.72C229.703 177.44 231.103 177.8 232.663 177.8ZM241.123 185V178.4L241.303 168.8L240.703 159.26V140.48H250.063V185H241.123ZM274.746 185.48C271.066 185.48 267.826 184.76 265.026 183.32C262.266 181.88 260.126 179.92 258.606 177.44C257.086 174.92 256.326 172.06 256.326 168.86C256.326 165.62 257.066 162.76 258.546 160.28C260.066 157.76 262.126 155.8 264.726 154.4C267.326 152.96 270.266 152.24 273.546 152.24C276.706 152.24 279.546 152.92 282.066 154.28C284.626 155.6 286.646 157.52 288.126 160.04C289.606 162.52 290.346 165.5 290.346 168.98C290.346 169.34 290.326 169.76 290.286 170.24C290.246 170.68 290.206 171.1 290.166 171.5H263.946V166.04H285.246L281.646 167.66C281.646 165.98 281.306 164.52 280.626 163.28C279.946 162.04 279.006 161.08 277.806 160.4C276.606 159.68 275.206 159.32 273.606 159.32C272.006 159.32 270.586 159.68 269.346 160.4C268.146 161.08 267.206 162.06 266.526 163.34C265.846 164.58 265.506 166.06 265.506 167.78V169.22C265.506 170.98 265.886 172.54 266.646 173.9C267.446 175.22 268.546 176.24 269.946 176.96C271.386 177.64 273.066 177.98 274.986 177.98C276.706 177.98 278.206 177.72 279.486 177.2C280.806 176.68 282.006 175.9 283.086 174.86L288.066 180.26C286.586 181.94 284.726 183.24 282.486 184.16C280.246 185.04 277.666 185.48 274.746 185.48ZM45.1834 222.24C47.7434 222.24 50.0034 222.76 51.9634 223.8C53.9634 224.8 55.5234 226.36 56.6434 228.48C57.8034 230.56 58.3834 233.24 58.3834 236.52V255H49.0234V237.96C49.0234 235.36 48.4834 233.44 47.4034 232.2C46.3234 230.96 44.8034 230.34 42.8434 230.34C41.4834 230.34 40.2634 230.66 39.1834 231.3C38.1034 231.9 37.2634 232.82 36.6634 234.06C36.0634 235.3 35.7634 236.88 35.7634 238.8V255H26.4034V237.96C26.4034 235.36 25.8634 233.44 24.7834 232.2C23.7434 230.96 22.2434 230.34 20.2834 230.34C18.9234 230.34 17.7034 230.66 16.6234 231.3C15.5434 231.9 14.7034 232.82 14.1034 234.06C13.5034 235.3 13.2034 236.88 13.2034 238.8V255H3.84344V222.72H12.7834V231.54L11.1034 228.96C12.2234 226.76 13.8034 225.1 15.8434 223.98C17.9234 222.82 20.2834 222.24 22.9234 222.24C25.8834 222.24 28.4634 223 30.6634 224.52C32.9034 226 34.3834 228.28 35.1034 231.36L31.8034 230.46C32.8834 227.94 34.6034 225.94 36.9634 224.46C39.3634 222.98 42.1034 222.24 45.1834 222.24ZM86.5731 255V248.7L85.9731 247.32V236.04C85.9731 234.04 85.3531 232.48 84.1131 231.36C82.9131 230.24 81.0531 229.68 78.5331 229.68C76.8131 229.68 75.1131 229.96 73.4331 230.52C71.7931 231.04 70.3931 231.76 69.2331 232.68L65.8731 226.14C67.6331 224.9 69.7531 223.94 72.2331 223.26C74.7131 222.58 77.2331 222.24 79.7931 222.24C84.7131 222.24 88.5331 223.4 91.2531 225.72C93.9731 228.04 95.3331 231.66 95.3331 236.58V255H86.5731ZM76.7331 255.48C74.2131 255.48 72.0531 255.06 70.2531 254.22C68.4531 253.34 67.0731 252.16 66.1131 250.68C65.1531 249.2 64.6731 247.54 64.6731 245.7C64.6731 243.78 65.1331 242.1 66.0531 240.66C67.0131 239.22 68.5131 238.1 70.5531 237.3C72.5931 236.46 75.2531 236.04 78.5331 236.04H87.1131V241.5H79.5531C77.3531 241.5 75.8331 241.86 74.9931 242.58C74.1931 243.3 73.7931 244.2 73.7931 245.28C73.7931 246.48 74.2531 247.44 75.1731 248.16C76.1331 248.84 77.4331 249.18 79.0731 249.18C80.6331 249.18 82.0331 248.82 83.2731 248.1C84.5131 247.34 85.4131 246.24 85.9731 244.8L87.4131 249.12C86.7331 251.2 85.4931 252.78 83.6931 253.86C81.8931 254.94 79.5731 255.48 76.7331 255.48ZM123.424 222.24C125.984 222.24 128.264 222.76 130.264 223.8C132.304 224.8 133.904 226.36 135.064 228.48C136.224 230.56 136.804 233.24 136.804 236.52V255H127.444V237.96C127.444 235.36 126.864 233.44 125.704 232.2C124.584 230.96 122.984 230.34 120.904 230.34C119.424 230.34 118.084 230.66 116.884 231.3C115.724 231.9 114.804 232.84 114.124 234.12C113.484 235.4 113.164 237.04 113.164 239.04V255H103.804V222.72H112.744V231.66L111.064 228.96C112.224 226.8 113.884 225.14 116.044 223.98C118.204 222.82 120.664 222.24 123.424 222.24ZM124.864 218.76C123.824 218.76 122.904 218.58 122.104 218.22C121.304 217.82 120.584 217.38 119.944 216.9C119.304 216.38 118.704 215.94 118.144 215.58C117.584 215.18 117.024 214.98 116.464 214.98C115.664 214.98 115.004 215.28 114.484 215.88C113.964 216.44 113.664 217.26 113.584 218.34H108.844C108.924 215.66 109.584 213.54 110.824 211.98C112.064 210.38 113.744 209.58 115.864 209.58C116.904 209.58 117.824 209.78 118.624 210.18C119.424 210.54 120.144 210.98 120.784 211.5C121.464 212.02 122.084 212.48 122.644 212.88C123.204 213.24 123.744 213.42 124.264 213.42C125.104 213.42 125.784 213.14 126.304 212.58C126.824 211.98 127.104 211.18 127.144 210.18H131.884C131.844 212.74 131.184 214.82 129.904 216.42C128.664 217.98 126.984 218.76 124.864 218.76ZM165.089 255V248.7L164.489 247.32V236.04C164.489 234.04 163.869 232.48 162.629 231.36C161.429 230.24 159.569 229.68 157.049 229.68C155.329 229.68 153.629 229.96 151.949 230.52C150.309 231.04 148.909 231.76 147.749 232.68L144.389 226.14C146.149 224.9 148.269 223.94 150.749 223.26C153.229 222.58 155.749 222.24 158.309 222.24C163.229 222.24 167.049 223.4 169.769 225.72C172.489 228.04 173.849 231.66 173.849 236.58V255H165.089ZM155.249 255.48C152.729 255.48 150.569 255.06 148.769 254.22C146.969 253.34 145.589 252.16 144.629 250.68C143.669 249.2 143.189 247.54 143.189 245.7C143.189 243.78 143.649 242.1 144.569 240.66C145.529 239.22 147.029 238.1 149.069 237.3C151.109 236.46 153.769 236.04 157.049 236.04H165.629V241.5H158.069C155.869 241.5 154.349 241.86 153.509 242.58C152.709 243.3 152.309 244.2 152.309 245.28C152.309 246.48 152.769 247.44 153.689 248.16C154.649 248.84 155.949 249.18 157.589 249.18C159.149 249.18 160.549 248.82 161.789 248.1C163.029 247.34 163.929 246.24 164.489 244.8L165.929 249.12C165.249 251.2 164.009 252.78 162.209 253.86C160.409 254.94 158.089 255.48 155.249 255.48ZM201.94 222.24C204.5 222.24 206.78 222.76 208.78 223.8C210.82 224.8 212.42 226.36 213.58 228.48C214.74 230.56 215.32 233.24 215.32 236.52V255H205.96V237.96C205.96 235.36 205.38 233.44 204.22 232.2C203.1 230.96 201.5 230.34 199.42 230.34C197.94 230.34 196.6 230.66 195.4 231.3C194.24 231.9 193.32 232.84 192.64 234.12C192 235.4 191.68 237.04 191.68 239.04V255H182.32V222.72H191.26V231.66L189.58 228.96C190.74 226.8 192.4 225.14 194.56 223.98C196.72 222.82 199.18 222.24 201.94 222.24ZM243.604 255V248.7L243.004 247.32V236.04C243.004 234.04 242.384 232.48 241.144 231.36C239.944 230.24 238.084 229.68 235.564 229.68C233.844 229.68 232.144 229.96 230.464 230.52C228.824 231.04 227.424 231.76 226.264 232.68L222.904 226.14C224.664 224.9 226.784 223.94 229.264 223.26C231.744 222.58 234.264 222.24 236.824 222.24C241.744 222.24 245.564 223.4 248.284 225.72C251.004 228.04 252.364 231.66 252.364 236.58V255H243.604ZM233.764 255.48C231.244 255.48 229.084 255.06 227.284 254.22C225.484 253.34 224.104 252.16 223.144 250.68C222.184 249.2 221.704 247.54 221.704 245.7C221.704 243.78 222.164 242.1 223.084 240.66C224.044 239.22 225.544 238.1 227.584 237.3C229.624 236.46 232.284 236.04 235.564 236.04H244.144V241.5H236.584C234.384 241.5 232.864 241.86 232.024 242.58C231.224 243.3 230.824 244.2 230.824 245.28C230.824 246.48 231.284 247.44 232.204 248.16C233.164 248.84 234.464 249.18 236.104 249.18C237.664 249.18 239.064 248.82 240.304 248.1C241.544 247.34 242.444 246.24 243.004 244.8L244.444 249.12C243.764 251.2 242.524 252.78 240.724 253.86C238.924 254.94 236.604 255.48 233.764 255.48ZM264.376 255.48C262.776 255.48 261.396 254.94 260.236 253.86C259.116 252.74 258.556 251.32 258.556 249.6C258.556 247.88 259.116 246.5 260.236 245.46C261.396 244.38 262.776 243.84 264.376 243.84C266.016 243.84 267.396 244.38 268.516 245.46C269.636 246.5 270.196 247.88 270.196 249.6C270.196 251.32 269.636 252.74 268.516 253.86C267.396 254.94 266.016 255.48 264.376 255.48ZM291.911 230.4L295.871 216L297.191 221.46C295.471 221.46 294.051 220.96 292.931 219.96C291.851 218.92 291.311 217.52 291.311 215.76C291.311 214.04 291.871 212.66 292.991 211.62C294.111 210.54 295.491 210 297.131 210C298.811 210 300.191 210.54 301.271 211.62C302.351 212.66 302.891 214.04 302.891 215.76C302.891 216.28 302.851 216.8 302.771 217.32C302.731 217.8 302.591 218.38 302.351 219.06C302.151 219.74 301.811 220.64 301.331 221.76L297.851 230.4H291.911ZM306.071 230.4L310.031 216L311.351 221.46C309.631 221.46 308.211 220.96 307.091 219.96C306.011 218.92 305.471 217.52 305.471 215.76C305.471 214.04 306.031 212.66 307.151 211.62C308.271 210.54 309.651 210 311.291 210C312.971 210 314.351 210.54 315.431 211.62C316.511 212.66 317.051 214.04 317.051 215.76C317.051 216.28 317.011 216.8 316.931 217.32C316.891 217.8 316.751 218.38 316.511 219.06C316.311 219.74 315.971 220.64 315.491 221.76L312.011 230.4H306.071Z" fill="white"/>
</g>
<defs>
<filter id="filter0_i_2550_4476" x="0" y="0" width="420.367" height="259.48" filterUnits="userSpaceOnUse" color-interpolation-filters="sRGB">
<feFlood flood-opacity="0" result="BackgroundImageFix"/>
<feBlend mode="normal" in="SourceGraphic" in2="BackgroundImageFix" result="shape"/>
<feColorMatrix in="SourceAlpha" type="matrix" values="0 0 0 0 0 0 0 0 0 0 0 0 0 0 0 0 0 0 127 0" result="hardAlpha"/>
<feOffset dx="4" dy="8"/>
<feGaussianBlur stdDeviation="2"/>
<feComposite in2="hardAlpha" operator="arithmetic" k2="-1" k3="1"/>
<feColorMatrix type="matrix" values="0 0 0 0 0 0 0 0 0 0 0 0 0 0 0 0 0 0 0.25 0"/>
<feBlend mode="normal" in2="shape" result="effect1_innerShadow_2550_4476"/>
</filter>
</defs>
</svg>
