<svg width="1083" height="179" viewBox="0 0 1083 179" fill="none" xmlns="http://www.w3.org/2000/svg">
<g filter="url(#filter0_i_1383_92)">
<path d="M64.5 179C51.6667 179 40.3333 176.25 30.5 170.75C20.8333 165.25 13.3333 157.5 8 147.5C2.66667 137.333 7.89762e-07 125.667 7.89762e-07 112.5V66.5C7.89762e-07 53.3333 2.66667 41.75 8 31.75C13.5 21.5833 21.1667 13.75 31 8.25C41 2.75 52.5 -1.07288e-06 65.5 -1.07288e-06H92C104.5 -1.07288e-06 115.5 2.66666 125 7.99999C134.5 13.3333 141.833 20.8333 147 30.5C152.333 40 155 51.0833 155 63.75H121C121 53.75 118.333 45.75 113 39.75C107.667 33.5833 100.667 30.5 92 30.5H65.5C56.1667 30.5 48.6667 34 43 41C37.3333 47.8333 34.5 56.8333 34.5 68V111C34.5 122.167 37.25 131.25 42.75 138.25C48.25 145.083 55.5 148.5 64.5 148.5H91.5C100.333 148.5 107.5 145.083 113 138.25C118.667 131.417 121.5 122.417 121.5 111.25H155.5C155.5 124.75 152.833 136.667 147.5 147C142.167 157.167 134.667 165.083 125 170.75C115.333 176.25 104.167 179 91.5 179H64.5ZM224.369 179C213.869 179 204.536 177 196.369 173C188.369 168.833 182.119 163 177.619 155.5C173.286 148 171.119 139.333 171.119 129.5V100.25C171.119 90.4167 173.369 81.75 177.869 74.25C182.369 66.5833 188.619 60.6667 196.619 56.5C204.786 52.3333 214.119 50.25 224.619 50.25H247.119C257.619 50.25 266.869 52.3333 274.869 56.5C283.036 60.6667 289.369 66.5833 293.869 74.25C298.369 81.75 300.619 90.4167 300.619 100.25V129.5C300.619 139.333 298.369 148 293.869 155.5C289.369 163 283.036 168.833 274.869 173C266.869 177 257.536 179 246.869 179H224.369ZM246.369 149.75C252.536 149.75 257.452 147.667 261.119 143.5C264.786 139.167 266.619 133.583 266.619 126.75V102.5C266.619 95.6667 264.786 90.1667 261.119 86C257.452 81.6667 252.619 79.5 246.619 79.5H225.119C219.119 79.5 214.286 81.6667 210.619 86C206.952 90.1667 205.119 95.6667 205.119 102.5V126.75C205.119 133.583 206.952 139.167 210.619 143.5C214.286 147.667 219.036 149.75 224.869 149.75H246.369ZM324.557 52.25H356.057V67.25C359.723 62.0833 364.473 58 370.307 55C376.14 51.8333 381.973 50.25 387.807 50.25H402.807C416.14 50.25 426.807 54.4167 434.807 62.75C442.973 71.0833 447.057 82.0833 447.057 95.75V177H413.057V97C413.057 91.8333 411.64 87.6667 408.807 84.5C406.14 81.3333 402.64 79.75 398.307 79.75H383.307C377.473 79.75 372.223 81.9167 367.557 86.25C363.057 90.4167 360.057 95.9167 358.557 102.75V177H324.557V52.25ZM528.959 177C514.292 177 503.542 173.667 496.709 167C489.876 160.333 486.459 150 486.459 136V81.25H464.459V52.25H487.459V14.5H520.459V52.25H552.959V81.25H520.459V134.5C520.459 139.167 521.292 142.583 522.959 144.75C524.792 146.917 527.626 148 531.459 148H552.959V177H528.959ZM613.568 179C600.568 179 590.068 175.75 582.068 169.25C574.068 162.75 570.068 154.167 570.068 143.5V134.25C570.068 123.75 574.235 115.333 582.568 109C590.902 102.5 601.902 99.25 615.568 99.25H630.818C635.152 99.25 639.818 99.8333 644.818 101C649.818 102.167 654.402 103.75 658.568 105.75V92.75C658.568 88.5833 657.152 85.25 654.318 82.75C651.652 80.0833 648.068 78.75 643.568 78.75H622.068C617.402 78.75 613.652 79.8333 610.818 82C607.985 84.1667 606.568 87.0833 606.568 90.75H573.568C573.568 78.5833 577.985 68.8333 586.818 61.5C595.818 54 607.568 50.25 622.068 50.25H643.568C658.235 50.25 670.068 54.1667 679.068 62C688.068 69.6667 692.568 79.9167 692.568 92.75V177H661.068V162C657.068 167.167 652.152 171.333 646.318 174.5C640.485 177.5 634.735 179 629.068 179H613.568ZM631.568 153C637.735 153 643.235 151.417 648.068 148.25C652.902 145.083 656.402 140.833 658.568 135.5V131.25C655.902 129.25 652.152 127.667 647.318 126.5C642.652 125.333 637.652 124.75 632.318 124.75H616.568C612.568 124.75 609.318 125.75 606.818 127.75C604.318 129.75 603.068 132.417 603.068 135.75V142.25C603.068 145.417 604.402 148 607.068 150C609.902 152 613.568 153 618.068 153H631.568ZM768.314 179C757.814 179 748.481 176.917 740.314 172.75C732.314 168.583 726.064 162.75 721.564 155.25C717.231 147.75 715.064 139.083 715.064 129.25V100C715.064 90.1667 717.231 81.5 721.564 74C726.064 66.5 732.314 60.6667 740.314 56.5C748.314 52.3333 757.564 50.25 768.064 50.25H787.814C797.814 50.25 806.648 52.25 814.314 56.25C821.981 60.25 827.898 65.9167 832.064 73.25C836.231 80.4167 838.314 88.75 838.314 98.25H804.564C804.564 92.5833 802.981 88.0833 799.814 84.75C796.814 81.25 792.814 79.5 787.814 79.5H768.564C762.731 79.5 757.981 81.6667 754.314 86C750.814 90.1667 749.064 95.6667 749.064 102.5V126.75C749.064 133.583 750.898 139.167 754.564 143.5C758.231 147.667 762.981 149.75 768.814 149.75H788.064C793.398 149.75 797.648 147.833 800.814 144C804.148 140.167 805.814 135.083 805.814 128.75H839.564C839.564 143.917 834.814 156.083 825.314 165.25C815.981 174.417 803.564 179 788.064 179H768.314ZM913.48 177C898.814 177 888.064 173.667 881.23 167C874.397 160.333 870.98 150 870.98 136V81.25H848.98V52.25H871.98V14.5H904.98V52.25H937.48V81.25H904.98V134.5C904.98 139.167 905.814 142.583 907.48 144.75C909.314 146.917 912.147 148 915.98 148H937.48V177H913.48ZM1005.86 179C995.363 179 986.03 177 977.863 173C969.863 168.833 963.613 163 959.113 155.5C954.78 148 952.613 139.333 952.613 129.5V100.25C952.613 90.4167 954.863 81.75 959.363 74.25C963.863 66.5833 970.113 60.6667 978.113 56.5C986.28 52.3333 995.613 50.25 1006.11 50.25H1028.61C1039.11 50.25 1048.36 52.3333 1056.36 56.5C1064.53 60.6667 1070.86 66.5833 1075.36 74.25C1079.86 81.75 1082.11 90.4167 1082.11 100.25V129.5C1082.11 139.333 1079.86 148 1075.36 155.5C1070.86 163 1064.53 168.833 1056.36 173C1048.36 177 1039.03 179 1028.36 179H1005.86ZM1027.86 149.75C1034.03 149.75 1038.95 147.667 1042.61 143.5C1046.28 139.167 1048.11 133.583 1048.11 126.75V102.5C1048.11 95.6667 1046.28 90.1667 1042.61 86C1038.95 81.6667 1034.11 79.5 1028.11 79.5H1006.61C1000.61 79.5 995.78 81.6667 992.113 86C988.447 90.1667 986.613 95.6667 986.613 102.5V126.75C986.613 133.583 988.447 139.167 992.113 143.5C995.78 147.667 1000.53 149.75 1006.36 149.75H1027.86Z" fill="#D9D9D9"/>
</g>
<defs>
<filter id="filter0_i_1383_92" x="0" y="0" width="1084.12" height="181" filterUnits="userSpaceOnUse" color-interpolation-filters="sRGB">
<feFlood flood-opacity="0" result="BackgroundImageFix"/>
<feBlend mode="normal" in="SourceGraphic" in2="BackgroundImageFix" result="shape"/>
<feColorMatrix in="SourceAlpha" type="matrix" values="0 0 0 0 0 0 0 0 0 0 0 0 0 0 0 0 0 0 127 0" result="hardAlpha"/>
<feOffset dx="2" dy="4"/>
<feGaussianBlur stdDeviation="1"/>
<feComposite in2="hardAlpha" operator="arithmetic" k2="-1" k3="1"/>
<feColorMatrix type="matrix" values="0 0 0 0 0 0 0 0 0 0 0 0 0 0 0 0 0 0 0.25 0"/>
<feBlend mode="normal" in2="shape" result="effect1_innerShadow_1383_92"/>
</filter>
</defs>
</svg>
